<svg xmlns="http://www.w3.org/2000/svg" xmlns:xlink="http://www.w3.org/1999/xlink" viewBox="0 0 32 31.92"><defs><style>      .cls-1 {        fill: url(#radial-gradient-7);      }      .cls-2 {        fill: #fff;      }      .cls-3 {        fill: url(#radial-gradient-2);      }      .cls-3, .cls-4 {        mix-blend-mode: multiply;      }      .cls-5 {        fill: url(#radial-gradient-8);      }      .cls-6 {        fill: url(#radial-gradient-5);      }      .cls-7 {        isolation: isolate;      }      .cls-8 {        fill: #e71639;      }      .cls-9 {        fill: #d37723;      }      .cls-4 {        fill: url(#radial-gradient-4);      }      .cls-10 {        fill: url(#radial-gradient-3);        mix-blend-mode: lighten;      }      .cls-11 {        fill: url(#radial-gradient-6);      }      .cls-12 {        fill: url(#radial-gradient);      }      .cls-13 {        fill: url(#linear-gradient);      }    </style><radialGradient id="radial-gradient" cx="20.46" cy="13.46" fx="20.46" fy="13.46" r="18.78" gradientTransform="translate(-1.12 1.41) scale(.85)" gradientUnits="userSpaceOnUse"><stop offset="0" stop-color="#fce45c"></stop><stop offset="1" stop-color="#f9bd42"></stop></radialGradient><radialGradient id="radial-gradient-2" cx="25.41" cy="26.83" fx="25.41" fy="26.83" r="7.62" gradientTransform="translate(-1.12 1.41) scale(.85)" gradientUnits="userSpaceOnUse"><stop offset="0" stop-color="#000"></stop><stop offset="1" stop-color="#fce400" stop-opacity="0"></stop></radialGradient><radialGradient id="radial-gradient-3" cx="15.85" cy="26.15" fx="15.85" fy="26.15" r="12.1" gradientTransform="translate(-1.12 1.41) scale(.85)" gradientUnits="userSpaceOnUse"><stop offset="0" stop-color="#ee5574"></stop><stop offset=".51" stop-color="#e83d59"></stop><stop offset=".67" stop-color="#e53a54"></stop><stop offset=".83" stop-color="#df3148"></stop><stop offset="1" stop-color="#d52434"></stop></radialGradient><radialGradient id="radial-gradient-4" cx="8.02" cy="182.62" fx="8.02" fy="182.62" r="7.99" gradientTransform="translate(-4.16 -27.04) rotate(-6.64) scale(.85 .28)" xlink:href="#radial-gradient-2"></radialGradient><radialGradient id="radial-gradient-5" cx="10.57" cy="22.48" fx="10.57" fy="22.48" r="12.19" gradientTransform="translate(-1.12 8.79) scale(.85 .52)" xlink:href="#radial-gradient"></radialGradient><radialGradient id="radial-gradient-6" cx="27.21" cy="27.17" fx="27.21" fy="27.17" r="17.09" gradientTransform="translate(-2.8 19.04) rotate(-12.04) scale(.85 .39)" gradientUnits="userSpaceOnUse"><stop offset="0" stop-color="#fce45c"></stop><stop offset=".69" stop-color="#f9bd42"></stop><stop offset=".92" stop-color="#f9c245"></stop></radialGradient><radialGradient id="radial-gradient-7" cx="13.67" cy="8.1" fx="13.67" fy="8.1" r="2.71" gradientTransform="translate(-1.12 1.41) scale(.85)" gradientUnits="userSpaceOnUse"><stop offset="0" stop-color="#4b4b4b"></stop><stop offset="1" stop-color="#000"></stop></radialGradient><radialGradient id="radial-gradient-8" cx="6987.45" fx="6987.45" r="2.71" gradientTransform="translate(5960.91 1.41) rotate(-180) scale(.85 -.85)" xlink:href="#radial-gradient-7"></radialGradient><linearGradient id="linear-gradient" x1="16.05" y1="13.29" x2="16.05" y2="11.31" gradientUnits="userSpaceOnUse"><stop offset="0" stop-color="#b8531f"></stop><stop offset=".26" stop-color="#a6511f"></stop><stop offset=".78" stop-color="#784d1f"></stop><stop offset=".79" stop-color="#774d20"></stop></linearGradient></defs><g class="cls-7"><g id="Layer_2" data-name="Layer 2"><g id="Layer_1-2" data-name="Layer 1"><g><circle class="cls-12" cx="16.04" cy="15.96" r="15.96"></circle><path class="cls-3" d="m22.63,22.42c-1.37.52.6,1.32-.87,1.37-1.19.04-2.11-1.11-3.15-.55-.88.47-4.95,2.3-4.76,3.28.19.98.91,1.8,1.78,2.29.87.49,1.88,1.56,2.87,1.64,4.07.32,6.11-1.62,8.4-3.31,1.52-1.12,4.98-4.79,1.22-5.37-1.82-.28-3.78,0-5.49.65Z"></path><path class="cls-8" d="m18.7,15.72c-2.18-.42-4.37,1.27-5.28,2.08-.55-1.1-1.96-3.47-4.14-3.88-2.82-.54-5.62,1.62-6.23,4.81-.33,1.74.05,3.5,1.05,4.84.01.03.03.07.05.1l6.35,7.87c.06.09.16.15.27.17.1.02.22,0,.31-.06l9.11-5.2.1-.06c.08-.05.15-.1.24-.16.04-.02.07-.05.09-.08,1.08-.91,1.83-2.2,2.11-3.66.61-3.19-1.19-6.23-4.02-6.76h0Z"></path><path class="cls-10" d="m18.7,15.72c-2.18-.42-4.37,1.27-5.28,2.08-.55-1.1-1.96-3.47-4.14-3.88-2.82-.54-5.62,1.62-6.23,4.81-.33,1.74.05,3.5,1.05,4.84.01.03.03.07.05.1l6.35,7.87c.06.09.16.15.27.17.1.02.22,0,.31-.06l9.11-5.2.1-.06c.08-.05.15-.1.24-.16.04-.02.07-.05.09-.08,1.08-.91,1.83-2.2,2.11-3.66.61-3.19-1.19-6.23-4.02-6.76h0Z"></path><path class="cls-4" d="m5.15,25.8c2.26.55,4.63.32,6.91-.16,1.4-.29,2.85-.71,3.82-1.75.98-1.04,1.23-2.87.18-3.84-.68-.63-1.71-.73-2.61-.53-.9.2-1.72.65-2.57,1.02-3.29,1.45-6.52,1.38-9.98.8-.72-.12-.93-.35-.9.48.02.59.72,1.29,1.09,1.68,1.08,1.14,2.54,1.91,4.06,2.29Z"></path><path class="cls-6" d="m.54,13.18s2.23,4.05,6.78,4.07c0,0,1.27.05,3.03-.47,1.76-.52,1.41.62,1.41.62,0,0-.5.79-1.24,1.19,0,0-.15.17.15.17s5.16-.69,3.3,3.35c0,0-1.56,3.23-7.99,2.28,0,0-2.13-.12-4.24-1.44,0,0-1.99-4.19-1.19-9.78Z"></path><path class="cls-11" d="m29.18,12.23s-1.62,7.4-5.38,8.68c0,0-3.02.83-4.83,0s-1.76.61-1.76.61c0,0,0,.88,1.28,1.23,0,0,.48.27-.03.35-.65.1-2.83.19-3.28,1.95,0,0-.13,2.3,3.2,3.26,1.5.43,3.08.41,4.57-.04,2.8-.84,7.68-3.18,8.76-9.17,0,0,1.36-4.74-2.54-6.87Z"></path><g><g><path class="cls-1" d="m10.52,9.99s2.48-.29,1.97-2.56-2.03-2.19-2.35-2.11-1.68.53-1.73,2.75c0,0-.27,2.51,2.11,1.92Z"></path><ellipse class="cls-2" cx="9.98" cy="6.84" rx=".91" ry=".77" transform="translate(-2 8.53) rotate(-42.48)"></ellipse></g><g><path class="cls-5" d="m21.56,9.99s-2.48-.29-1.97-2.56,2.03-2.19,2.35-2.11,1.68.53,1.73,2.75c0,0,.27,2.51-2.11,1.92Z"></path><ellipse class="cls-2" cx="21.01" cy="6.82" rx=".91" ry=".77" transform="translate(.91 15.98) rotate(-42.48)"></ellipse></g></g><path class="cls-13" d="m19.11,11.67c.27.05.35.36.14.54-.81.66-1.95,1.08-3.2,1.08s-2.38-.43-3.2-1.08c-.21-.17-.13-.48.14-.54.94-.18,1.97-.36,3.06-.36s2.12.18,3.06.36Z"></path><g><path class="cls-9" d="m7.52,4.32c.35-.37,2.31-2.14,5.19-1.93.76.06,1.1.35,1.25.65.15.31.3,1.16-1.48.9-1.85-.27-3.33.34-3.84.61-.25.14-.53.29-.82.3-.28.01-.54-.05-.42-.34.03-.07.07-.14.12-.19Z"></path><path class="cls-9" d="m24.56,4.32c-.35-.37-2.31-2.14-5.19-1.93-.76.06-1.1.35-1.25.65-.15.31-.3,1.16,1.48.9,1.85-.27,3.36.34,3.84.61.27.15.53.29.82.3.28.01.54-.05.42-.34-.03-.07-.07-.14-.12-.19Z"></path></g></g></g></g></g></svg>