<svg xmlns="http://www.w3.org/2000/svg" id="Layer_2" data-name="Layer 2" viewBox="0 0 56.71 34.29"><defs><style>      .cls-1 {        fill: #2f8edd;        stroke-width: 0px;      }    </style></defs><g id="Layer_1-2" data-name="Layer 1"><path class="cls-1" d="M55.37,19.46l-19.35,13.86c-1.33.96-3.25,1.23-4.99.71-1.74-.52-2.83-1.68-2.83-3.03v-6.45C9.87,23.71.38,16,0,1.63-.01,1.11.45.65,1.15.49c.7-.16,1.46.03,1.87.47,5.8,6.23,12.33,10.12,25.17,8.83V3.29c0-1.35,1.08-2.51,2.83-3.03.58-.17,1.19-.26,1.78-.26,1.18,0,2.32.33,3.21.97l19.35,13.85c.87.62,1.34,1.44,1.34,2.32s-.48,1.7-1.34,2.32Z"></path></g></svg>