<svg xmlns="http://www.w3.org/2000/svg" id="Layer_2" data-name="Layer 2" viewBox="0 0 30.72 30.73"><defs><style>      .cls-1 {        fill: #fff;        stroke-width: 0px;      }    </style></defs><g id="Layer_1-2" data-name="Layer 1"><g><path class="cls-1" d="M30.72,15.36c0-4.24-1.72-8.08-4.5-10.86C23.44,1.72,19.6,0,15.36,0h0s0,0,0,0h0c-.33,0-.67.01-1,.04-3.85.25-7.31,1.91-9.87,4.47C1.8,7.19.11,10.87,0,14.96h1.42c.11-3.69,1.65-7.01,4.08-9.45C7.8,3.2,10.91,1.7,14.36,1.46c.33-.02.66-.04,1-.04h0s0,0,0,0h0c3.85,0,7.33,1.56,9.86,4.08,2.52,2.52,4.09,6.01,4.09,9.86h0s0,0,0,0c0,.93-.09,1.83-.26,2.7-.14.17-.26.26-.39.31-.18.06-.43.07-.79.07h0s-3.41,0-3.41,0c-.04-.11-.09-.22-.14-.31,1.38-1.88,2.57-4.09,2.57-6.37,0-6.37-7.86-5.66-10.77-1.63l.19,3.2.4,6.65.03.46v.15c.05-.38.09-.75.13-1.13.02-.81.67-1.04,1.38-1.04.04,0,.07,0,.11,0,.15,0,.29,0,.44.01.2,0,.41.02.61.02,0,0,0,0,0,0,.25-.67.63-1.06,1.15-1.27.38-.16.84-.21,1.36-.21.57,0,1.05.08,1.44.29.37.2.66.52.87,1-.08.11-.17.22-.25.33,0,0,0,0-.01.01-.16.21-.33.42-.49.62-.01.01-.02.03-.04.04-.06.07-.11.14-.17.2-.02.03-.05.06-.07.08.02-.03.05-.06.07-.08.18.3.44.48.89.48,1.99,0,3.92-.01,5.88-.01.46-1.46.7-2.97.7-4.58h0s0,0,0,0ZM21.98,9.19c.26.38.49.77.69,1.17.09.18.17.35.24.53-.08.05-.16.1-.24.16-.14.09-.27.18-.41.27-.21.15-.42.3-.62.45-.15-.48-.38-.94-.66-1.39l1-1.2ZM23.21,14.9l-.54-.07-.28-.04c-.27-.03-.55-.07-.82-.11.07-.21.14-.42.18-.64,0,0,0,0,0,0h0s0,0,0,0c.11-.52.13-1.03.06-1.53.21-.17.42-.34.65-.5.07-.05.14-.1.21-.15.15-.11.31-.22.47-.32.16.54.25,1.09.26,1.65.01.56-.06,1.13-.2,1.7ZM23.56,10.51c-.16-.34-.34-.68-.54-1-.11-.18-.23-.36-.35-.53-.08-.11-.16-.22-.24-.33l.24-.29.38-.45c.27.3.53.6.78.93.28.37.53.76.75,1.16-.35.15-.68.32-1.01.51ZM23.89,14.99s.02-.05.02-.08c0,0,0,0,0,0,.18-.64.27-1.29.25-1.92-.02-.63-.15-1.25-.36-1.85.34-.2.69-.37,1.05-.54.26.61.44,1.25.48,1.9.05.65-.04,1.31-.24,1.98,0,0,0,0,0,0,0,0,0,0,0,0h0s0,0,0,0c-.07.22-.15.44-.23.65-.33-.04-.66-.09-.99-.13Z"></path><path class="cls-1" d="M15.74,26.85l-.82-13.31v.05s-.32,3.68-.32,3.68l-.23,2.74-.07.79c-.04.45-.34.79-.82.76h-.01c-.58-.05-.71-.65-.81-1.11-.03-.16-.06-.33-.1-.49,0,0,0,0,0,0-.05,0-.11,0-.16,0h0c-.07,0-.15,0-.22,0-.05,0-.09,0-.14,0-.59,0-.9-.45-1.08-.96-.02-.05-.03-.1-.05-.15-.46.75-1.16,1.11-2.2,1.11,0,0,0,0-.01,0h-1.09s0,0,0,0c2.29,2.64,5.01,5.04,7.62,7.36.17-.15.34-.31.52-.46l.08,1.1h0c.04.96,1.33.93,1.36-.02,0-.04.01-.08.02-.12l.36-2.57c1.98-1.79,3.93-3.66,5.62-5.66-.11-.15-.19-.34-.27-.56-.18-.51-.48-.54-.97-.54,0,0-.02,0-.03,0-.52,0-.93,0-1.11.56-.17.52-.4.89-1.01.92-.07,0-.15,0-.22,0-.28,0-.56,0-.84-.02-.08,0-.17,0-.25,0-.05,0-.1,0-.15,0v.08s-.7,4.66-.7,4.66l-.08.52-1.43,1.32s-.08.07-.11.1l-.27.24Z"></path><path class="cls-1" d="M25.22,25.22c-2.52,2.52-6.01,4.09-9.86,4.09h0s0,0,0,0h0c-.34,0-.67,0-1-.03-3.45-.24-6.56-1.75-8.86-4.05-1.29-1.29-2.32-2.83-3.03-4.53-.31-.75.66-.74,1.12-.74h0s4,0,4,0c-.11-.13-.23-.26-.34-.4-.07-.08-.14-.16-.21-.25-.01-.02-.03-.03-.04-.05-.06-.08-.13-.15-.19-.23,0,0,0-.01-.01-.02-.15-.18-.29-.37-.44-.56h1.3s1.02,0,1.02,0h0c.95,0,1.13-.68,1.3-1.48.13-.61.31-1.32,1.11-1.27.76.05.95.91,1.04,1.57.01.09.03.18.04.27.04.25.08.64.15.92.02,0,.03,0,.05,0,.04,0,.07,0,.11,0,.17,0,.34,0,.5,0l.65-6.34.26-2.51s0,0,0,.01c.15.16.28.34.41.51,0,0,0,0,0,0,.06.08.11.16.16.24.01.02.02.04.04.06.05.09.11.17.16.26l.53.95.53-.95c.05-.09.1-.18.16-.27,0-.01.02-.03.03-.04.05-.08.11-.16.17-.24,0,0,0,0,0,0,0,0,0,0,0,0l-.38-6.12c0-.38-.16-.7-.55-.73-.41-.03-.63.28-.67.69l-.6,5.63c-3.17-3.56-10.35-3.94-10.35,2.15,0,2.41,1.33,4.75,2.8,6.69-2.02,0-4.04,0-6.06,0,.61,3.01,2.1,5.7,4.19,7.79,2.56,2.56,6.02,4.22,9.87,4.47.33.02.66.03,1,.03h0s0,0,0,0h0c4.24,0,8.08-1.72,10.86-4.5.83-.83,1.57-1.76,2.19-2.77h-1.71c-.45.63-.95,1.22-1.49,1.76Z"></path></g></g></svg>