<svg xmlns="http://www.w3.org/2000/svg" id="Layer_2" data-name="Layer 2" viewBox="0 0 32 32"><defs><style>      .cls-1 {        fill: #fff;      }      .cls-1, .cls-2 {        stroke-width: 0px;      }      .cls-2 {        fill: #0b66e6;      }    </style></defs><g id="Layer_1-2" data-name="Layer 1"><g id="share"><circle class="cls-2" cx="16" cy="16" r="16"></circle><path class="cls-1" d="M24.81,14.94l-6.31-6.31c-.44-.44-1.06-.56-1.63-.32-.57.24-.92.76-.92,1.38v2.94c-5.98.38-9.07,3.89-9.2,10.44,0,.24.15.45.38.52.23.07.48-.01.61-.22,1.89-2.84,4.02-4.61,8.21-4.02v2.96c0,.62.35,1.14.92,1.38.19.08.39.12.58.12.38,0,.76-.15,1.05-.44l6.31-6.31c.28-.28.44-.66.44-1.06s-.16-.77-.44-1.06Z"></path></g></g></svg>